<svg width="16" height="16" viewBox="0 0 16 16" fill="none" xmlns="http://www.w3.org/2000/svg">
<path fill-rule="evenodd" clip-rule="evenodd" d="M6.28567 6.25635H8.76167V7.48968C9.11834 6.78035 10.033 6.14302 11.407 6.14302C14.041 6.14302 14.6663 7.55502 14.6663 10.1457V14.9437H11.9997V10.7357C11.9997 9.26035 11.643 8.42835 10.735 8.42835C9.47567 8.42835 8.95234 9.32502 8.95234 10.735V14.9437H6.28567V6.25635ZM1.71301 14.8304H4.37967V6.14302H1.71301V14.8304ZM4.76167 3.31035C4.76177 3.53387 4.71744 3.75517 4.63127 3.96141C4.54509 4.16764 4.41878 4.35469 4.25967 4.51169C3.93727 4.8321 3.50088 5.01145 3.04634 5.01035C2.5926 5.01005 2.15722 4.83115 1.83434 4.51235C1.67582 4.35483 1.54993 4.16757 1.4639 3.96131C1.37788 3.75504 1.33339 3.53383 1.33301 3.31035C1.33301 2.85902 1.51301 2.42702 1.83501 2.10835C2.1576 1.78912 2.59317 1.61015 3.04701 1.61035C3.50167 1.61035 3.93767 1.78969 4.25967 2.10835C4.58101 2.42702 4.76167 2.85902 4.76167 3.31035Z" fill="white"/>
</svg>
