<svg width="106" height="66" viewBox="0 0 106 66" fill="none" xmlns="http://www.w3.org/2000/svg">
<path d="M48.8135 24.955C48.6275 24.955 48.4414 24.769 48.4414 24.583V12.2157C48.4414 12.0297 48.6275 11.8438 48.8135 11.8438C48.9996 11.8438 49.1857 12.0297 49.1857 12.2157V24.583C49.1857 24.8155 48.9996 24.955 48.8135 24.955Z" fill="white"/>
<path d="M46.1623 20.1198C46.1158 20.1198 46.0693 20.1198 46.0228 20.0733C43.604 18.9575 42.0225 16.5398 42.0225 13.8896C42.0225 12.0507 42.7615 10.3708 43.9642 9.14225C45.1941 7.88594 46.9088 7.10156 48.8137 7.10156C52.5815 7.10156 55.605 10.1237 55.605 13.8896C55.605 15.7029 54.9072 17.4232 53.6048 18.6785C53.4652 18.818 53.2327 18.818 53.0931 18.6785C52.9536 18.539 52.9536 18.3065 53.0931 18.1671C54.256 17.0047 54.8607 15.5169 54.8607 13.8896C54.8607 10.5421 52.1628 7.84546 48.8137 7.84546C47.2307 7.84546 45.7932 8.44792 44.7173 9.43681C43.5169 10.5401 42.7667 12.1244 42.7667 13.8896C42.7667 16.2608 44.1622 18.3995 46.3019 19.3759C46.4879 19.4689 46.581 19.7014 46.4879 19.8873C46.4414 20.0268 46.3019 20.1198 46.1623 20.1198Z" fill="white"/>
<path d="M57.233 24.9547C57.0469 24.9547 56.8608 24.7688 56.8608 24.5828V13.3778C56.8608 13.1918 57.0469 13.0059 57.233 13.0059C57.419 13.0059 57.6051 13.1918 57.6051 13.3778V24.5828C57.6051 24.8153 57.419 24.9547 57.233 24.9547Z" fill="white"/>
<path d="M40.441 20.6775C40.6465 20.6775 40.8131 20.511 40.8131 20.3055C40.8131 20.1001 40.6465 19.9336 40.441 19.9336C40.2355 19.9336 40.0688 20.1001 40.0688 20.3055C40.0688 20.511 40.2355 20.6775 40.441 20.6775Z" fill="white"/>
<path d="M65.606 20.6775C65.8115 20.6775 65.9781 20.511 65.9781 20.3055C65.9781 20.1001 65.8115 19.9336 65.606 19.9336C65.4005 19.9336 65.2339 20.1001 65.2339 20.3055C65.2339 20.511 65.4005 20.6775 65.606 20.6775Z" fill="white"/>
<path d="M40.441 24.8621C40.6465 24.8621 40.8131 24.6955 40.8131 24.4901C40.8131 24.2847 40.6465 24.1182 40.441 24.1182C40.2355 24.1182 40.0688 24.2847 40.0688 24.4901C40.0688 24.6955 40.2355 24.8621 40.441 24.8621Z" fill="white"/>
<path d="M44.627 24.8621C44.8325 24.8621 44.9991 24.6955 44.9991 24.4901C44.9991 24.2847 44.8325 24.1182 44.627 24.1182C44.4215 24.1182 44.2549 24.2847 44.2549 24.4901C44.2549 24.6955 44.4215 24.8621 44.627 24.8621Z" fill="white"/>
<path d="M48.8135 24.8621C49.019 24.8621 49.1857 24.6955 49.1857 24.4901C49.1857 24.2847 49.019 24.1182 48.8135 24.1182C48.608 24.1182 48.4414 24.2847 48.4414 24.4901C48.4414 24.6955 48.608 24.8621 48.8135 24.8621Z" fill="white"/>
<path d="M57.233 24.8621C57.4385 24.8621 57.6051 24.6955 57.6051 24.4901C57.6051 24.2847 57.4385 24.1182 57.233 24.1182C57.0274 24.1182 56.8608 24.2847 56.8608 24.4901C56.8608 24.6955 57.0274 24.8621 57.233 24.8621Z" fill="white"/>
<path d="M61.42 24.8621C61.6255 24.8621 61.7921 24.6955 61.7921 24.4901C61.7921 24.2847 61.6255 24.1182 61.42 24.1182C61.2145 24.1182 61.0479 24.2847 61.0479 24.4901C61.0479 24.6955 61.2145 24.8621 61.42 24.8621Z" fill="white"/>
<path d="M65.606 24.8621C65.8115 24.8621 65.9781 24.6955 65.9781 24.4901C65.9781 24.2847 65.8115 24.1182 65.606 24.1182C65.4005 24.1182 65.2339 24.2847 65.2339 24.4901C65.2339 24.6955 65.4005 24.8621 65.606 24.8621Z" fill="white"/>
<path d="M40.441 29.0935C40.6465 29.0935 40.8131 28.927 40.8131 28.7216C40.8131 28.5161 40.6465 28.3496 40.441 28.3496C40.2355 28.3496 40.0688 28.5161 40.0688 28.7216C40.0688 28.927 40.2355 29.0935 40.441 29.0935Z" fill="white"/>
<path d="M44.627 29.0935C44.8325 29.0935 44.9991 28.927 44.9991 28.7216C44.9991 28.5161 44.8325 28.3496 44.627 28.3496C44.4215 28.3496 44.2549 28.5161 44.2549 28.7216C44.2549 28.927 44.4215 29.0935 44.627 29.0935Z" fill="white"/>
<path d="M48.8135 29.0935C49.019 29.0935 49.1857 28.927 49.1857 28.7216C49.1857 28.5161 49.019 28.3496 48.8135 28.3496C48.608 28.3496 48.4414 28.5161 48.4414 28.7216C48.4414 28.927 48.608 29.0935 48.8135 29.0935Z" fill="white"/>
<path d="M53.0001 29.0935C53.2056 29.0935 53.3722 28.927 53.3722 28.7216C53.3722 28.5161 53.2056 28.3496 53.0001 28.3496C52.7945 28.3496 52.6279 28.5161 52.6279 28.7216C52.6279 28.927 52.7945 29.0935 53.0001 29.0935Z" fill="white"/>
<path d="M57.233 29.0935C57.4385 29.0935 57.6051 28.927 57.6051 28.7216C57.6051 28.5161 57.4385 28.3496 57.233 28.3496C57.0274 28.3496 56.8608 28.5161 56.8608 28.7216C56.8608 28.927 57.0274 29.0935 57.233 29.0935Z" fill="white"/>
<path d="M61.42 29.0935C61.6255 29.0935 61.7921 28.927 61.7921 28.7216C61.7921 28.5161 61.6255 28.3496 61.42 28.3496C61.2145 28.3496 61.0479 28.5161 61.0479 28.7216C61.0479 28.927 61.2145 29.0935 61.42 29.0935Z" fill="white"/>
<path d="M65.606 29.0935C65.8115 29.0935 65.9781 28.927 65.9781 28.7216C65.9781 28.5161 65.8115 28.3496 65.606 28.3496C65.4005 28.3496 65.2339 28.5161 65.2339 28.7216C65.2339 28.927 65.4005 29.0935 65.606 29.0935Z" fill="white"/>
<path d="M40.441 33.2771C40.6465 33.2771 40.8131 33.1106 40.8131 32.9052C40.8131 32.6997 40.6465 32.5332 40.441 32.5332C40.2355 32.5332 40.0688 32.6997 40.0688 32.9052C40.0688 33.1106 40.2355 33.2771 40.441 33.2771Z" fill="white"/>
<path d="M36.2081 20.6775C36.4136 20.6775 36.5802 20.511 36.5802 20.3055C36.5802 20.1001 36.4136 19.9336 36.2081 19.9336C36.0025 19.9336 35.8359 20.1001 35.8359 20.3055C35.8359 20.511 36.0025 20.6775 36.2081 20.6775Z" fill="white"/>
<path d="M36.2081 24.8621C36.4136 24.8621 36.5802 24.6955 36.5802 24.4901C36.5802 24.2847 36.4136 24.1182 36.2081 24.1182C36.0025 24.1182 35.8359 24.2847 35.8359 24.4901C35.8359 24.6955 36.0025 24.8621 36.2081 24.8621Z" fill="white"/>
<path d="M36.2081 29.0935C36.4136 29.0935 36.5802 28.927 36.5802 28.7216C36.5802 28.5161 36.4136 28.3496 36.2081 28.3496C36.0025 28.3496 35.8359 28.5161 35.8359 28.7216C35.8359 28.927 36.0025 29.0935 36.2081 29.0935Z" fill="white"/>
<path d="M36.2081 33.2771C36.4136 33.2771 36.5802 33.1106 36.5802 32.9052C36.5802 32.6997 36.4136 32.5332 36.2081 32.5332C36.0025 32.5332 35.8359 32.6997 35.8359 32.9052C35.8359 33.1106 36.0025 33.2771 36.2081 33.2771Z" fill="white"/>
<path d="M69.792 20.6775C69.9976 20.6775 70.1642 20.511 70.1642 20.3055C70.1642 20.1001 69.9976 19.9336 69.792 19.9336C69.5865 19.9336 69.4199 20.1001 69.4199 20.3055C69.4199 20.511 69.5865 20.6775 69.792 20.6775Z" fill="white"/>
<path d="M69.792 24.8621C69.9976 24.8621 70.1642 24.6955 70.1642 24.4901C70.1642 24.2847 69.9976 24.1182 69.792 24.1182C69.5865 24.1182 69.4199 24.2847 69.4199 24.4901C69.4199 24.6955 69.5865 24.8621 69.792 24.8621Z" fill="white"/>
<path d="M69.792 29.0935C69.9976 29.0935 70.1642 28.927 70.1642 28.7216C70.1642 28.5161 69.9976 28.3496 69.792 28.3496C69.5865 28.3496 69.4199 28.5161 69.4199 28.7216C69.4199 28.927 69.5865 29.0935 69.792 29.0935Z" fill="white"/>
<path d="M69.792 33.2771C69.9976 33.2771 70.1642 33.1106 70.1642 32.9052C70.1642 32.6997 69.9976 32.5332 69.792 32.5332C69.5865 32.5332 69.4199 32.6997 69.4199 32.9052C69.4199 33.1106 69.5865 33.2771 69.792 33.2771Z" fill="white"/>
<path d="M44.627 33.2771C44.8325 33.2771 44.9991 33.1106 44.9991 32.9052C44.9991 32.6997 44.8325 32.5332 44.627 32.5332C44.4215 32.5332 44.2549 32.6997 44.2549 32.9052C44.2549 33.1106 44.4215 33.2771 44.627 33.2771Z" fill="white"/>
<path d="M48.8135 33.2771C49.019 33.2771 49.1857 33.1106 49.1857 32.9052C49.1857 32.6997 49.019 32.5332 48.8135 32.5332C48.608 32.5332 48.4414 32.6997 48.4414 32.9052C48.4414 33.1106 48.608 33.2771 48.8135 33.2771Z" fill="white"/>
<path d="M53.0001 33.2771C53.2056 33.2771 53.3722 33.1106 53.3722 32.9052C53.3722 32.6997 53.2056 32.5332 53.0001 32.5332C52.7945 32.5332 52.6279 32.6997 52.6279 32.9052C52.6279 33.1106 52.7945 33.2771 53.0001 33.2771Z" fill="white"/>
<path d="M57.233 33.2771C57.4385 33.2771 57.6051 33.1106 57.6051 32.9052C57.6051 32.6997 57.4385 32.5332 57.233 32.5332C57.0274 32.5332 56.8608 32.6997 56.8608 32.9052C56.8608 33.1106 57.0274 33.2771 57.233 33.2771Z" fill="white"/>
<path d="M61.42 33.2771C61.6255 33.2771 61.7921 33.1106 61.7921 32.9052C61.7921 32.6997 61.6255 32.5332 61.42 32.5332C61.2145 32.5332 61.0479 32.6997 61.0479 32.9052C61.0479 33.1106 61.2145 33.2771 61.42 33.2771Z" fill="white"/>
<path d="M65.606 33.2771C65.8115 33.2771 65.9781 33.1106 65.9781 32.9052C65.9781 32.6997 65.8115 32.5332 65.606 32.5332C65.4005 32.5332 65.2339 32.6997 65.2339 32.9052C65.2339 33.1106 65.4005 33.2771 65.606 33.2771Z" fill="white"/>
<path d="M57.2797 21.1889C57.0937 21.1889 56.9076 21.0029 56.9076 20.8169C56.9076 20.631 57.0937 20.445 57.2797 20.445C59.652 20.445 61.5592 18.5387 61.5592 16.1676C61.5592 15.0052 61.094 11.2857 60.2102 7.70571C59.0938 3.05634 57.931 1.38257 57.2797 1.38257C57.0006 1.38257 56.0238 1.70803 54.7679 6.03194C54.7214 6.21792 54.4888 6.3574 54.3028 6.3109C54.1167 6.26441 53.9771 6.03194 54.0237 5.84597C55.047 2.35894 56.0703 0.638672 57.2332 0.638672C60.3498 0.638672 62.2569 14.0754 62.2569 16.1676C62.3034 18.9107 60.0241 21.1889 57.2797 21.1889Z" fill="white"/>
<path fill-rule="evenodd" clip-rule="evenodd" d="M48.8594 16.1496L50.9162 14.0938L48.8594 16.1496Z" fill="white"/>
<path d="M48.8594 16.1496L50.9162 14.0938" stroke="white" stroke-width="0.7" stroke-linecap="round"/>
<path fill-rule="evenodd" clip-rule="evenodd" d="M57.2324 16.149L58.6736 15.1211L57.2324 16.149Z" fill="white"/>
<path d="M57.2324 16.149L58.6736 15.1211" stroke="white" stroke-width="0.7" stroke-linecap="round"/>
<path fill-rule="evenodd" clip-rule="evenodd" d="M48.5903 15.1217L47.4638 14.0938L48.5903 15.1217Z" fill="white"/>
<path d="M48.5903 15.1217L47.4638 14.0938" stroke="white" stroke-width="0.7" stroke-linecap="round"/>
<path d="M6.42045 59.2773H1.2642V44.7319H6.46307C7.92614 44.7319 9.18561 45.0231 10.2415 45.6055C11.2973 46.1831 12.1094 47.0141 12.6776 48.0984C13.2505 49.1826 13.5369 50.48 13.5369 51.9904C13.5369 53.5056 13.2505 54.8076 12.6776 55.8967C12.1094 56.9857 11.2926 57.8214 10.2273 58.4038C9.16667 58.9862 7.89773 59.2773 6.42045 59.2773ZM4.33949 56.6424H6.29261C7.2017 56.6424 7.96638 56.4814 8.58665 56.1594C9.21165 55.8327 9.6804 55.3285 9.9929 54.6467C10.3101 53.9601 10.4688 53.0747 10.4688 51.9904C10.4688 50.9156 10.3101 50.0373 9.9929 49.3555C9.6804 48.6737 9.21402 48.1718 8.59375 47.8498C7.97348 47.5278 7.20881 47.3668 6.29972 47.3668H4.33949V56.6424ZM15.1582 59.2773V48.3683H18.1837V59.2773H15.1582ZM16.6781 46.962C16.2282 46.962 15.8424 46.8129 15.5204 46.5146C15.2031 46.2115 15.0445 45.8493 15.0445 45.4279C15.0445 45.0112 15.2031 44.6538 15.5204 44.3555C15.8424 44.0524 16.2282 43.9009 16.6781 43.9009C17.1279 43.9009 17.5114 44.0524 17.8286 44.3555C18.1506 44.6538 18.3116 45.0112 18.3116 45.4279C18.3116 45.8493 18.1506 46.2115 17.8286 46.5146C17.5114 46.8129 17.1279 46.962 16.6781 46.962ZM24.9222 63.5955C23.942 63.5955 23.1016 63.4606 22.4009 63.1907C21.7048 62.9255 21.1509 62.5633 20.7389 62.104C20.327 61.6448 20.0595 61.1287 19.9364 60.5558L22.7347 60.1793C22.8199 60.3971 22.9548 60.6007 23.1395 60.7901C23.3241 60.9795 23.568 61.131 23.871 61.2447C24.1788 61.363 24.5528 61.4222 24.9932 61.4222C25.6513 61.4222 26.1935 61.2612 26.6196 60.9393C27.0505 60.622 27.2659 60.0894 27.2659 59.3413V57.3455H27.1381C27.0055 57.6486 26.8066 57.935 26.5415 58.2049C26.2763 58.4748 25.9354 58.695 25.5187 58.8654C25.1021 59.0359 24.6049 59.1211 24.0273 59.1211C23.2081 59.1211 22.4624 58.9317 21.7901 58.5529C21.1224 58.1694 20.5898 57.5846 20.192 56.7987C19.7991 56.0079 19.6026 55.0089 19.6026 53.8015C19.6026 52.5657 19.8038 51.5335 20.2062 50.7049C20.6087 49.8763 21.1437 49.256 21.8114 48.8441C22.4837 48.4322 23.22 48.2262 24.0202 48.2262C24.631 48.2262 25.1423 48.3304 25.5543 48.5387C25.9662 48.7423 26.2976 48.998 26.5486 49.3058C26.8043 49.6088 27.0008 49.9071 27.1381 50.2006H27.2517V48.3683H30.256V59.3839C30.256 60.3119 30.0287 61.0884 29.5741 61.7134C29.1196 62.3384 28.4899 62.8072 27.6849 63.1197C26.8848 63.4369 25.9638 63.5955 24.9222 63.5955ZM24.9861 56.8484C25.4738 56.8484 25.8857 56.7276 26.2219 56.4862C26.5628 56.2399 26.8232 55.8896 27.0031 55.435C27.1878 54.9757 27.2801 54.4265 27.2801 53.7873C27.2801 53.1481 27.1902 52.5941 27.0102 52.1254C26.8303 51.6519 26.5699 51.2849 26.229 51.0245C25.8881 50.7641 25.4738 50.6339 24.9861 50.6339C24.4889 50.6339 24.0699 50.7688 23.729 51.0387C23.3881 51.3039 23.13 51.6732 22.9548 52.1467C22.7796 52.6201 22.692 53.167 22.692 53.7873C22.692 54.417 22.7796 54.9615 22.9548 55.4208C23.1348 55.8754 23.3928 56.2281 23.729 56.479C24.0699 56.7253 24.4889 56.8484 24.9861 56.8484ZM32.0636 59.2773V48.3683H35.0892V59.2773H32.0636ZM33.5835 46.962C33.1337 46.962 32.7478 46.8129 32.4259 46.5146C32.1086 46.2115 31.95 45.8493 31.95 45.4279C31.95 45.0112 32.1086 44.6538 32.4259 44.3555C32.7478 44.0524 33.1337 43.9009 33.5835 43.9009C34.0333 43.9009 34.4169 44.0524 34.7341 44.3555C35.0561 44.6538 35.217 45.0112 35.217 45.4279C35.217 45.8493 35.0561 46.2115 34.7341 46.5146C34.4169 46.8129 34.0333 46.962 33.5835 46.962ZM42.7154 48.3683V50.641H36.1458V48.3683H42.7154ZM37.6373 45.7546H40.6629V55.9251C40.6629 56.2044 40.7055 56.4222 40.7907 56.5785C40.8759 56.73 40.9943 56.8365 41.1458 56.8981C41.3021 56.9596 41.482 56.9904 41.6856 56.9904C41.8276 56.9904 41.9697 56.9786 42.1117 56.9549C42.2538 56.9265 42.3627 56.9052 42.4384 56.891L42.9143 59.1424C42.7628 59.1897 42.5497 59.2442 42.2751 59.3058C42.0004 59.372 41.6666 59.4123 41.2736 59.4265C40.5445 59.4549 39.9053 59.3578 39.356 59.1353C38.8115 58.9128 38.3878 58.5671 38.0847 58.0984C37.7817 57.6296 37.6326 57.0378 37.6373 56.3228V45.7546ZM47.1971 59.4833C46.5011 59.4833 45.8808 59.3626 45.3363 59.1211C44.7918 58.8749 44.3609 58.5127 44.0437 58.0344C43.7312 57.5515 43.5749 56.9502 43.5749 56.2305C43.5749 55.6244 43.6862 55.1154 43.9087 54.7035C44.1313 54.2915 44.4343 53.9601 44.8178 53.7092C45.2013 53.4582 45.637 53.2688 46.1246 53.141C46.6171 53.0131 47.1332 52.9232 47.6729 52.8711C48.3074 52.8048 48.8188 52.7433 49.207 52.6864C49.5953 52.6249 49.877 52.5349 50.0522 52.4165C50.2274 52.2982 50.315 52.123 50.315 51.891V51.8484C50.315 51.3986 50.1729 51.0505 49.8888 50.8043C49.6095 50.5581 49.2118 50.435 48.6957 50.435C48.1512 50.435 47.7179 50.5558 47.396 50.7972C47.074 51.034 46.8609 51.3323 46.7567 51.6921L43.9585 51.4648C44.1005 50.802 44.3799 50.229 44.7965 49.7461C45.2132 49.2584 45.7506 48.8844 46.4087 48.6239C47.0716 48.3588 47.8387 48.2262 48.7099 48.2262C49.3159 48.2262 49.896 48.2972 50.4499 48.4393C51.0086 48.5813 51.5034 48.8015 51.9343 49.0998C52.3699 49.3981 52.7132 49.7816 52.9641 50.2504C53.2151 50.7144 53.3406 51.2707 53.3406 51.9194V59.2773H50.4712V57.7646H50.386C50.2108 58.1055 49.9764 58.4061 49.6829 58.6665C49.3893 58.9222 49.0366 59.1235 48.6246 59.2702C48.2127 59.4123 47.7369 59.4833 47.1971 59.4833ZM48.0636 57.3952C48.5086 57.3952 48.9016 57.3076 49.2425 57.1325C49.5835 56.9525 49.851 56.7111 50.0451 56.408C50.2392 56.105 50.3363 55.7617 50.3363 55.3782V54.2205C50.2416 54.2821 50.1114 54.3389 49.9457 54.391C49.7847 54.4383 49.6024 54.4833 49.3988 54.5259C49.1952 54.5638 48.9916 54.5993 48.788 54.6325C48.5844 54.6609 48.3997 54.6869 48.234 54.7106C47.8789 54.7627 47.5688 54.8455 47.3036 54.9592C47.0385 55.0728 46.8325 55.2267 46.6857 55.4208C46.5389 55.6102 46.4656 55.8469 46.4656 56.131C46.4656 56.543 46.6147 56.8578 46.913 57.0756C47.216 57.2887 47.5996 57.3952 48.0636 57.3952ZM58.1134 44.7319V59.2773H55.0879V44.7319H58.1134ZM64.0228 59.2773V44.7319H69.7614C70.8647 44.7319 71.8045 44.9426 72.581 45.364C73.3576 45.7807 73.9494 46.3607 74.3566 47.104C74.7685 47.8427 74.9745 48.695 74.9745 49.6609C74.9745 50.6268 74.7662 51.479 74.3495 52.2177C73.9328 52.9563 73.3291 53.5316 72.5384 53.9435C71.7524 54.3555 70.8007 54.5614 69.6833 54.5614H66.0256V52.0969H69.1862C69.778 52.0969 70.2657 51.9951 70.6492 51.7915C71.0375 51.5832 71.3263 51.2968 71.5157 50.9322C71.7098 50.5629 71.8069 50.1391 71.8069 49.6609C71.8069 49.1779 71.7098 48.7565 71.5157 48.3967C71.3263 48.0321 71.0375 47.7504 70.6492 47.5515C70.261 47.3479 69.7685 47.2461 69.1719 47.2461H67.0981V59.2773H64.0228ZM79.133 59.4833C78.437 59.4833 77.8167 59.3626 77.2722 59.1211C76.7277 58.8749 76.2968 58.5127 75.9796 58.0344C75.6671 57.5515 75.5109 56.9502 75.5109 56.2305C75.5109 55.6244 75.6221 55.1154 75.8447 54.7035C76.0672 54.2915 76.3702 53.9601 76.7538 53.7092C77.1373 53.4582 77.5729 53.2688 78.0606 53.141C78.553 53.0131 79.0691 52.9232 79.6089 52.8711C80.2433 52.8048 80.7547 52.7433 81.143 52.6864C81.5312 52.6249 81.8129 52.5349 81.9881 52.4165C82.1633 52.2982 82.2509 52.123 82.2509 51.891V51.8484C82.2509 51.3986 82.1089 51.0505 81.8248 50.8043C81.5454 50.5581 81.1477 50.435 80.6316 50.435C80.0871 50.435 79.6539 50.5558 79.3319 50.7972C79.0099 51.034 78.7968 51.3323 78.6927 51.6921L75.8944 51.4648C76.0364 50.802 76.3158 50.229 76.7325 49.7461C77.1491 49.2584 77.6865 48.8844 78.3447 48.6239C79.0076 48.3588 79.7746 48.2262 80.6458 48.2262C81.2519 48.2262 81.8319 48.2972 82.3859 48.4393C82.9446 48.5813 83.4394 48.8015 83.8702 49.0998C84.3058 49.3981 84.6491 49.7816 84.9001 50.2504C85.151 50.7144 85.2765 51.2707 85.2765 51.9194V59.2773H82.4072V57.7646H82.3219C82.1468 58.1055 81.9124 58.4061 81.6188 58.6665C81.3253 58.9222 80.9725 59.1235 80.5606 59.2702C80.1486 59.4123 79.6728 59.4833 79.133 59.4833ZM79.9995 57.3952C80.4446 57.3952 80.8376 57.3076 81.1785 57.1325C81.5194 56.9525 81.7869 56.7111 81.981 56.408C82.1752 56.105 82.2722 55.7617 82.2722 55.3782V54.2205C82.1775 54.2821 82.0473 54.3389 81.8816 54.391C81.7206 54.4383 81.5383 54.4833 81.3347 54.5259C81.1311 54.5638 80.9275 54.5993 80.7239 54.6325C80.5203 54.6609 80.3357 54.6869 80.17 54.7106C79.8148 54.7627 79.5047 54.8455 79.2396 54.9592C78.9744 55.0728 78.7684 55.2267 78.6217 55.4208C78.4749 55.6102 78.4015 55.8469 78.4015 56.131C78.4015 56.543 78.5506 56.8578 78.8489 57.0756C79.152 57.2887 79.5355 57.3952 79.9995 57.3952ZM87.0238 59.2773V48.3683H89.957V50.2717H90.0707C90.2695 49.5946 90.6033 49.0832 91.0721 48.7376C91.5408 48.3872 92.0806 48.212 92.6914 48.212C92.8429 48.212 93.0063 48.2215 93.1815 48.2404C93.3567 48.2594 93.5105 48.2854 93.6431 48.3185V51.0032C93.5011 50.9606 93.3046 50.9227 93.0536 50.8896C92.8027 50.8564 92.573 50.8398 92.3647 50.8398C91.9196 50.8398 91.5219 50.9369 91.1715 51.131C90.8259 51.3204 90.5513 51.5856 90.3477 51.9265C90.1488 52.2674 90.0494 52.6604 90.0494 53.1055V59.2773H87.0238ZM97.3489 56.1381L97.356 52.5089H97.7963L101.291 48.3683H104.764L100.069 53.8512H99.3517L97.3489 56.1381ZM94.6074 59.2773V44.7319H97.633V59.2773H94.6074ZM101.426 59.2773L98.2153 54.5259L100.232 52.3881L104.97 59.2773H101.426Z" fill="white"/>
</svg>
