<svg width="106" height="65" viewBox="0 0 106 65" fill="none" xmlns="http://www.w3.org/2000/svg">
<path d="M48.8135 24.3168C48.6275 24.3168 48.4414 24.1308 48.4414 23.9448V11.5775C48.4414 11.3915 48.6275 11.2056 48.8135 11.2056C48.9996 11.2056 49.1857 11.3915 49.1857 11.5775V23.9448C49.1857 24.1773 48.9996 24.3168 48.8135 24.3168Z" fill="#1A1B25"/>
<path d="M46.1623 19.4806C46.1158 19.4806 46.0693 19.4806 46.0228 19.4341C43.604 18.3183 42.0225 15.9006 42.0225 13.2505C42.0225 11.4115 42.7615 9.73165 43.9642 8.50309C45.1941 7.24678 46.9088 6.4624 48.8137 6.4624C52.5815 6.4624 55.605 9.48449 55.605 13.2505C55.605 15.0637 54.9072 16.784 53.6048 18.0393C53.4652 18.1788 53.2327 18.1788 53.0931 18.0393C52.9536 17.8999 52.9536 17.6674 53.0931 17.5279C54.256 16.3656 54.8607 14.8778 54.8607 13.2505C54.8607 9.90294 52.1628 7.2063 48.8137 7.2063C47.2307 7.2063 45.7932 7.80876 44.7173 8.79765C43.5169 9.90092 42.7667 11.4852 42.7667 13.2505C42.7667 15.6217 44.1622 17.7604 46.3019 18.7367C46.4879 18.8297 46.581 19.0622 46.4879 19.2482C46.4414 19.3877 46.3019 19.4806 46.1623 19.4806Z" fill="#1A1B25"/>
<path d="M57.233 24.3161C57.0469 24.3161 56.8608 24.1301 56.8608 23.9441V12.7391C56.8608 12.5532 57.0469 12.3672 57.233 12.3672C57.419 12.3672 57.6051 12.5532 57.6051 12.7391V23.9441C57.6051 24.1766 57.419 24.3161 57.233 24.3161Z" fill="#1A1B25"/>
<path d="M40.441 20.0388C40.6465 20.0388 40.8131 19.8723 40.8131 19.6669C40.8131 19.4614 40.6465 19.2949 40.441 19.2949C40.2355 19.2949 40.0688 19.4614 40.0688 19.6669C40.0688 19.8723 40.2355 20.0388 40.441 20.0388Z" fill="#1A1B25"/>
<path d="M65.606 20.0388C65.8115 20.0388 65.9781 19.8723 65.9781 19.6669C65.9781 19.4614 65.8115 19.2949 65.606 19.2949C65.4005 19.2949 65.2339 19.4614 65.2339 19.6669C65.2339 19.8723 65.4005 20.0388 65.606 20.0388Z" fill="#1A1B25"/>
<path d="M40.441 24.2239C40.6465 24.2239 40.8131 24.0574 40.8131 23.8519C40.8131 23.6465 40.6465 23.48 40.441 23.48C40.2355 23.48 40.0688 23.6465 40.0688 23.8519C40.0688 24.0574 40.2355 24.2239 40.441 24.2239Z" fill="#1A1B25"/>
<path d="M44.627 24.2239C44.8325 24.2239 44.9991 24.0574 44.9991 23.8519C44.9991 23.6465 44.8325 23.48 44.627 23.48C44.4215 23.48 44.2549 23.6465 44.2549 23.8519C44.2549 24.0574 44.4215 24.2239 44.627 24.2239Z" fill="#1A1B25"/>
<path d="M48.8135 24.2239C49.019 24.2239 49.1857 24.0574 49.1857 23.8519C49.1857 23.6465 49.019 23.48 48.8135 23.48C48.608 23.48 48.4414 23.6465 48.4414 23.8519C48.4414 24.0574 48.608 24.2239 48.8135 24.2239Z" fill="#1A1B25"/>
<path d="M57.233 24.2239C57.4385 24.2239 57.6051 24.0574 57.6051 23.8519C57.6051 23.6465 57.4385 23.48 57.233 23.48C57.0274 23.48 56.8608 23.6465 56.8608 23.8519C56.8608 24.0574 57.0274 24.2239 57.233 24.2239Z" fill="#1A1B25"/>
<path d="M61.42 24.2239C61.6255 24.2239 61.7921 24.0574 61.7921 23.8519C61.7921 23.6465 61.6255 23.48 61.42 23.48C61.2145 23.48 61.0479 23.6465 61.0479 23.8519C61.0479 24.0574 61.2145 24.2239 61.42 24.2239Z" fill="#1A1B25"/>
<path d="M65.606 24.2239C65.8115 24.2239 65.9781 24.0574 65.9781 23.8519C65.9781 23.6465 65.8115 23.48 65.606 23.48C65.4005 23.48 65.2339 23.6465 65.2339 23.8519C65.2339 24.0574 65.4005 24.2239 65.606 24.2239Z" fill="#1A1B25"/>
<path d="M40.441 28.4548C40.6465 28.4548 40.8131 28.2883 40.8131 28.0829C40.8131 27.8775 40.6465 27.7109 40.441 27.7109C40.2355 27.7109 40.0688 27.8775 40.0688 28.0829C40.0688 28.2883 40.2355 28.4548 40.441 28.4548Z" fill="#1A1B25"/>
<path d="M44.627 28.4548C44.8325 28.4548 44.9991 28.2883 44.9991 28.0829C44.9991 27.8775 44.8325 27.7109 44.627 27.7109C44.4215 27.7109 44.2549 27.8775 44.2549 28.0829C44.2549 28.2883 44.4215 28.4548 44.627 28.4548Z" fill="#1A1B25"/>
<path d="M48.8135 28.4548C49.019 28.4548 49.1857 28.2883 49.1857 28.0829C49.1857 27.8775 49.019 27.7109 48.8135 27.7109C48.608 27.7109 48.4414 27.8775 48.4414 28.0829C48.4414 28.2883 48.608 28.4548 48.8135 28.4548Z" fill="#1A1B25"/>
<path d="M53.0001 28.4548C53.2056 28.4548 53.3722 28.2883 53.3722 28.0829C53.3722 27.8775 53.2056 27.7109 53.0001 27.7109C52.7945 27.7109 52.6279 27.8775 52.6279 28.0829C52.6279 28.2883 52.7945 28.4548 53.0001 28.4548Z" fill="#1A1B25"/>
<path d="M57.233 28.4548C57.4385 28.4548 57.6051 28.2883 57.6051 28.0829C57.6051 27.8775 57.4385 27.7109 57.233 27.7109C57.0274 27.7109 56.8608 27.8775 56.8608 28.0829C56.8608 28.2883 57.0274 28.4548 57.233 28.4548Z" fill="#1A1B25"/>
<path d="M61.42 28.4548C61.6255 28.4548 61.7921 28.2883 61.7921 28.0829C61.7921 27.8775 61.6255 27.7109 61.42 27.7109C61.2145 27.7109 61.0479 27.8775 61.0479 28.0829C61.0479 28.2883 61.2145 28.4548 61.42 28.4548Z" fill="#1A1B25"/>
<path d="M65.606 28.4548C65.8115 28.4548 65.9781 28.2883 65.9781 28.0829C65.9781 27.8775 65.8115 27.7109 65.606 27.7109C65.4005 27.7109 65.2339 27.8775 65.2339 28.0829C65.2339 28.2883 65.4005 28.4548 65.606 28.4548Z" fill="#1A1B25"/>
<path d="M40.441 32.6389C40.6465 32.6389 40.8131 32.4724 40.8131 32.267C40.8131 32.0615 40.6465 31.895 40.441 31.895C40.2355 31.895 40.0688 32.0615 40.0688 32.267C40.0688 32.4724 40.2355 32.6389 40.441 32.6389Z" fill="#1A1B25"/>
<path d="M36.2081 20.0388C36.4136 20.0388 36.5802 19.8723 36.5802 19.6669C36.5802 19.4614 36.4136 19.2949 36.2081 19.2949C36.0025 19.2949 35.8359 19.4614 35.8359 19.6669C35.8359 19.8723 36.0025 20.0388 36.2081 20.0388Z" fill="#1A1B25"/>
<path d="M36.2081 24.2239C36.4136 24.2239 36.5802 24.0574 36.5802 23.8519C36.5802 23.6465 36.4136 23.48 36.2081 23.48C36.0025 23.48 35.8359 23.6465 35.8359 23.8519C35.8359 24.0574 36.0025 24.2239 36.2081 24.2239Z" fill="#1A1B25"/>
<path d="M36.2081 28.4548C36.4136 28.4548 36.5802 28.2883 36.5802 28.0829C36.5802 27.8775 36.4136 27.7109 36.2081 27.7109C36.0025 27.7109 35.8359 27.8775 35.8359 28.0829C35.8359 28.2883 36.0025 28.4548 36.2081 28.4548Z" fill="#1A1B25"/>
<path d="M36.2081 32.6389C36.4136 32.6389 36.5802 32.4724 36.5802 32.267C36.5802 32.0615 36.4136 31.895 36.2081 31.895C36.0025 31.895 35.8359 32.0615 35.8359 32.267C35.8359 32.4724 36.0025 32.6389 36.2081 32.6389Z" fill="#1A1B25"/>
<path d="M69.792 20.0388C69.9976 20.0388 70.1642 19.8723 70.1642 19.6669C70.1642 19.4614 69.9976 19.2949 69.792 19.2949C69.5865 19.2949 69.4199 19.4614 69.4199 19.6669C69.4199 19.8723 69.5865 20.0388 69.792 20.0388Z" fill="#1A1B25"/>
<path d="M69.792 24.2239C69.9976 24.2239 70.1642 24.0574 70.1642 23.8519C70.1642 23.6465 69.9976 23.48 69.792 23.48C69.5865 23.48 69.4199 23.6465 69.4199 23.8519C69.4199 24.0574 69.5865 24.2239 69.792 24.2239Z" fill="#1A1B25"/>
<path d="M69.792 28.4548C69.9976 28.4548 70.1642 28.2883 70.1642 28.0829C70.1642 27.8775 69.9976 27.7109 69.792 27.7109C69.5865 27.7109 69.4199 27.8775 69.4199 28.0829C69.4199 28.2883 69.5865 28.4548 69.792 28.4548Z" fill="#1A1B25"/>
<path d="M69.792 32.6389C69.9976 32.6389 70.1642 32.4724 70.1642 32.267C70.1642 32.0615 69.9976 31.895 69.792 31.895C69.5865 31.895 69.4199 32.0615 69.4199 32.267C69.4199 32.4724 69.5865 32.6389 69.792 32.6389Z" fill="#1A1B25"/>
<path d="M44.627 32.6389C44.8325 32.6389 44.9991 32.4724 44.9991 32.267C44.9991 32.0615 44.8325 31.895 44.627 31.895C44.4215 31.895 44.2549 32.0615 44.2549 32.267C44.2549 32.4724 44.4215 32.6389 44.627 32.6389Z" fill="#1A1B25"/>
<path d="M48.8135 32.6389C49.019 32.6389 49.1857 32.4724 49.1857 32.267C49.1857 32.0615 49.019 31.895 48.8135 31.895C48.608 31.895 48.4414 32.0615 48.4414 32.267C48.4414 32.4724 48.608 32.6389 48.8135 32.6389Z" fill="#1A1B25"/>
<path d="M53.0001 32.6389C53.2056 32.6389 53.3722 32.4724 53.3722 32.267C53.3722 32.0615 53.2056 31.895 53.0001 31.895C52.7945 31.895 52.6279 32.0615 52.6279 32.267C52.6279 32.4724 52.7945 32.6389 53.0001 32.6389Z" fill="#1A1B25"/>
<path d="M57.233 32.6389C57.4385 32.6389 57.6051 32.4724 57.6051 32.267C57.6051 32.0615 57.4385 31.895 57.233 31.895C57.0274 31.895 56.8608 32.0615 56.8608 32.267C56.8608 32.4724 57.0274 32.6389 57.233 32.6389Z" fill="#1A1B25"/>
<path d="M61.42 32.6389C61.6255 32.6389 61.7921 32.4724 61.7921 32.267C61.7921 32.0615 61.6255 31.895 61.42 31.895C61.2145 31.895 61.0479 32.0615 61.0479 32.267C61.0479 32.4724 61.2145 32.6389 61.42 32.6389Z" fill="#1A1B25"/>
<path d="M65.606 32.6389C65.8115 32.6389 65.9781 32.4724 65.9781 32.267C65.9781 32.0615 65.8115 31.895 65.606 31.895C65.4005 31.895 65.2339 32.0615 65.2339 32.267C65.2339 32.4724 65.4005 32.6389 65.606 32.6389Z" fill="#1A1B25"/>
<path d="M57.2797 20.5502C57.0937 20.5502 56.9076 20.3642 56.9076 20.1783C56.9076 19.9923 57.0937 19.8063 57.2797 19.8063C59.652 19.8063 61.5592 17.9001 61.5592 15.5289C61.5592 14.3666 61.094 10.6471 60.2102 7.06704C59.0938 2.41767 57.931 0.743899 57.2797 0.743899C57.0006 0.743899 56.0238 1.06936 54.7679 5.39327C54.7214 5.57924 54.4888 5.71873 54.3028 5.67223C54.1167 5.62574 53.9771 5.39327 54.0237 5.20729C55.047 1.72027 56.0703 0 57.2332 0C60.3498 0 62.2569 13.4367 62.2569 15.5289C62.3034 18.272 60.0241 20.5502 57.2797 20.5502Z" fill="#1A1B25"/>
<path fill-rule="evenodd" clip-rule="evenodd" d="M48.8594 15.5115L50.9162 13.4556L48.8594 15.5115Z" fill="#1A1B25"/>
<path d="M48.8594 15.5115L50.9162 13.4556" stroke="#1A1B25" stroke-width="0.7" stroke-linecap="round"/>
<path fill-rule="evenodd" clip-rule="evenodd" d="M57.2324 15.5109L58.6736 14.4829L57.2324 15.5109Z" fill="#1A1B25"/>
<path d="M57.2324 15.5109L58.6736 14.4829" stroke="#1A1B25" stroke-width="0.7" stroke-linecap="round"/>
<path fill-rule="evenodd" clip-rule="evenodd" d="M48.5903 14.4835L47.4638 13.4556L48.5903 14.4835Z" fill="#1A1B25"/>
<path d="M48.5903 14.4835L47.4638 13.4556" stroke="#1A1B25" stroke-width="0.7" stroke-linecap="round"/>
<path d="M6.42045 58.6387H1.2642V44.0932H6.46307C7.92614 44.0932 9.18561 44.3844 10.2415 44.9668C11.2973 45.5444 12.1094 46.3754 12.6776 47.4597C13.2505 48.544 13.5369 49.8413 13.5369 51.3517C13.5369 52.8669 13.2505 54.169 12.6776 55.258C12.1094 56.347 11.2926 57.1827 10.2273 57.7651C9.16667 58.3475 7.89773 58.6387 6.42045 58.6387ZM4.33949 56.0037H6.29261C7.2017 56.0037 7.96638 55.8427 8.58665 55.5208C9.21165 55.1941 9.6804 54.6898 9.9929 54.008C10.3101 53.3214 10.4688 52.436 10.4688 51.3517C10.4688 50.2769 10.3101 49.3986 9.9929 48.7168C9.6804 48.035 9.21402 47.5331 8.59375 47.2111C7.97348 46.8891 7.20881 46.7282 6.29972 46.7282H4.33949V56.0037ZM15.1582 58.6387V47.7296H18.1837V58.6387H15.1582ZM16.6781 46.3233C16.2282 46.3233 15.8424 46.1742 15.5204 45.8759C15.2031 45.5729 15.0445 45.2106 15.0445 44.7892C15.0445 44.3726 15.2031 44.0151 15.5204 43.7168C15.8424 43.4138 16.2282 43.2623 16.6781 43.2623C17.1279 43.2623 17.5114 43.4138 17.8286 43.7168C18.1506 44.0151 18.3116 44.3726 18.3116 44.7892C18.3116 45.2106 18.1506 45.5729 17.8286 45.8759C17.5114 46.1742 17.1279 46.3233 16.6781 46.3233ZM24.9222 62.9569C23.942 62.9569 23.1016 62.8219 22.4009 62.552C21.7048 62.2869 21.1509 61.9247 20.7389 61.4654C20.327 61.0061 20.0595 60.49 19.9364 59.9171L22.7347 59.5407C22.8199 59.7585 22.9548 59.9621 23.1395 60.1515C23.3241 60.3408 23.568 60.4924 23.871 60.606C24.1788 60.7244 24.5528 60.7836 24.9932 60.7836C25.6513 60.7836 26.1935 60.6226 26.6196 60.3006C27.0505 59.9834 27.2659 59.4507 27.2659 58.7026V56.7069H27.1381C27.0055 57.0099 26.8066 57.2963 26.5415 57.5662C26.2763 57.8361 25.9354 58.0563 25.5187 58.2267C25.1021 58.3972 24.6049 58.4824 24.0273 58.4824C23.2081 58.4824 22.4624 58.293 21.7901 57.9142C21.1224 57.5307 20.5898 56.946 20.192 56.16C19.7991 55.3693 19.6026 54.3702 19.6026 53.1628C19.6026 51.927 19.8038 50.8948 20.2062 50.0662C20.6087 49.2376 21.1437 48.6174 21.8114 48.2054C22.4837 47.7935 23.22 47.5875 24.0202 47.5875C24.631 47.5875 25.1423 47.6917 25.5543 47.9C25.9662 48.1036 26.2976 48.3593 26.5486 48.6671C26.8043 48.9701 27.0008 49.2684 27.1381 49.562H27.2517V47.7296H30.256V58.7452C30.256 59.6732 30.0287 60.4498 29.5741 61.0748C29.1196 61.6998 28.4899 62.1685 27.6849 62.481C26.8848 62.7982 25.9638 62.9569 24.9222 62.9569ZM24.9861 56.2097C25.4738 56.2097 25.8857 56.089 26.2219 55.8475C26.5628 55.6013 26.8232 55.2509 27.0031 54.7963C27.1878 54.3371 27.2801 53.7878 27.2801 53.1486C27.2801 52.5094 27.1902 51.9554 27.0102 51.4867C26.8303 51.0132 26.5699 50.6462 26.229 50.3858C25.8881 50.1254 25.4738 49.9952 24.9861 49.9952C24.4889 49.9952 24.0699 50.1301 23.729 50.4C23.3881 50.6652 23.13 51.0345 22.9548 51.508C22.7796 51.9815 22.692 52.5283 22.692 53.1486C22.692 53.7783 22.7796 54.3229 22.9548 54.7821C23.1348 55.2367 23.3928 55.5894 23.729 55.8404C24.0699 56.0866 24.4889 56.2097 24.9861 56.2097ZM32.0636 58.6387V47.7296H35.0892V58.6387H32.0636ZM33.5835 46.3233C33.1337 46.3233 32.7478 46.1742 32.4259 45.8759C32.1086 45.5729 31.95 45.2106 31.95 44.7892C31.95 44.3726 32.1086 44.0151 32.4259 43.7168C32.7478 43.4138 33.1337 43.2623 33.5835 43.2623C34.0333 43.2623 34.4169 43.4138 34.7341 43.7168C35.0561 44.0151 35.217 44.3726 35.217 44.7892C35.217 45.2106 35.0561 45.5729 34.7341 45.8759C34.4169 46.1742 34.0333 46.3233 33.5835 46.3233ZM42.7154 47.7296V50.0023H36.1458V47.7296H42.7154ZM37.6373 45.1159H40.6629V55.2864C40.6629 55.5658 40.7055 55.7836 40.7907 55.9398C40.8759 56.0913 40.9943 56.1979 41.1458 56.2594C41.3021 56.321 41.482 56.3517 41.6856 56.3517C41.8276 56.3517 41.9697 56.3399 42.1117 56.3162C42.2538 56.2878 42.3627 56.2665 42.4384 56.2523L42.9143 58.5037C42.7628 58.5511 42.5497 58.6055 42.2751 58.6671C42.0004 58.7334 41.6666 58.7736 41.2736 58.7878C40.5445 58.8162 39.9053 58.7192 39.356 58.4966C38.8115 58.2741 38.3878 57.9284 38.0847 57.4597C37.7817 56.9909 37.6326 56.3991 37.6373 55.6841V45.1159ZM47.1971 58.8446C46.5011 58.8446 45.8808 58.7239 45.3363 58.4824C44.7918 58.2362 44.3609 57.874 44.0437 57.3958C43.7312 56.9128 43.5749 56.3115 43.5749 55.5918C43.5749 54.9857 43.6862 54.4767 43.9087 54.0648C44.1313 53.6529 44.4343 53.3214 44.8178 53.0705C45.2013 52.8195 45.637 52.6301 46.1246 52.5023C46.6171 52.3745 47.1332 52.2845 47.6729 52.2324C48.3074 52.1661 48.8188 52.1046 49.207 52.0478C49.5953 51.9862 49.877 51.8962 50.0522 51.7779C50.2274 51.6595 50.315 51.4843 50.315 51.2523V51.2097C50.315 50.7599 50.1729 50.4119 49.8888 50.1657C49.6095 49.9194 49.2118 49.7963 48.6957 49.7963C48.1512 49.7963 47.7179 49.9171 47.396 50.1586C47.074 50.3953 46.8609 50.6936 46.7567 51.0534L43.9585 50.8262C44.1005 50.1633 44.3799 49.5904 44.7965 49.1074C45.2132 48.6197 45.7506 48.2457 46.4087 47.9853C47.0716 47.7201 47.8387 47.5875 48.7099 47.5875C49.3159 47.5875 49.896 47.6586 50.4499 47.8006C51.0086 47.9426 51.5034 48.1628 51.9343 48.4611C52.3699 48.7594 52.7132 49.1429 52.9641 49.6117C53.2151 50.0757 53.3406 50.632 53.3406 51.2807V58.6387H50.4712V57.1259H50.386C50.2108 57.4668 49.9764 57.7675 49.6829 58.0279C49.3893 58.2836 49.0366 58.4848 48.6246 58.6316C48.2127 58.7736 47.7369 58.8446 47.1971 58.8446ZM48.0636 56.7566C48.5086 56.7566 48.9016 56.669 49.2425 56.4938C49.5835 56.3139 49.851 56.0724 50.0451 55.7694C50.2392 55.4663 50.3363 55.123 50.3363 54.7395V53.5819C50.2416 53.6434 50.1114 53.7002 49.9457 53.7523C49.7847 53.7997 49.6024 53.8446 49.3988 53.8873C49.1952 53.9251 48.9916 53.9606 48.788 53.9938C48.5844 54.0222 48.3997 54.0482 48.234 54.0719C47.8789 54.124 47.5688 54.2069 47.3036 54.3205C47.0385 54.4341 46.8325 54.588 46.6857 54.7821C46.5389 54.9715 46.4656 55.2083 46.4656 55.4924C46.4656 55.9043 46.6147 56.2192 46.913 56.437C47.216 56.65 47.5996 56.7566 48.0636 56.7566ZM58.1134 44.0932V58.6387H55.0879V44.0932H58.1134ZM64.0228 58.6387V44.0932H69.7614C70.8647 44.0932 71.8045 44.3039 72.581 44.7253C73.3576 45.142 73.9494 45.722 74.3566 46.4654C74.7685 47.204 74.9745 48.0563 74.9745 49.0222C74.9745 49.9881 74.7662 50.8404 74.3495 51.579C73.9328 52.3176 73.3291 52.8929 72.5384 53.3049C71.7524 53.7168 70.8007 53.9228 69.6833 53.9228H66.0256V51.4583H69.1862C69.778 51.4583 70.2657 51.3565 70.6492 51.1529C71.0375 50.9445 71.3263 50.6581 71.5157 50.2935C71.7098 49.9242 71.8069 49.5004 71.8069 49.0222C71.8069 48.5392 71.7098 48.1178 71.5157 47.758C71.3263 47.3934 71.0375 47.1117 70.6492 46.9128C70.261 46.7092 69.7685 46.6074 69.1719 46.6074H67.0981V58.6387H64.0228ZM79.133 58.8446C78.437 58.8446 77.8167 58.7239 77.2722 58.4824C76.7277 58.2362 76.2968 57.874 75.9796 57.3958C75.6671 56.9128 75.5109 56.3115 75.5109 55.5918C75.5109 54.9857 75.6221 54.4767 75.8447 54.0648C76.0672 53.6529 76.3702 53.3214 76.7538 53.0705C77.1373 52.8195 77.5729 52.6301 78.0606 52.5023C78.553 52.3745 79.0691 52.2845 79.6089 52.2324C80.2433 52.1661 80.7547 52.1046 81.143 52.0478C81.5312 51.9862 81.8129 51.8962 81.9881 51.7779C82.1633 51.6595 82.2509 51.4843 82.2509 51.2523V51.2097C82.2509 50.7599 82.1089 50.4119 81.8248 50.1657C81.5454 49.9194 81.1477 49.7963 80.6316 49.7963C80.0871 49.7963 79.6539 49.9171 79.3319 50.1586C79.0099 50.3953 78.7968 50.6936 78.6927 51.0534L75.8944 50.8262C76.0364 50.1633 76.3158 49.5904 76.7325 49.1074C77.1491 48.6197 77.6865 48.2457 78.3447 47.9853C79.0076 47.7201 79.7746 47.5875 80.6458 47.5875C81.2519 47.5875 81.8319 47.6586 82.3859 47.8006C82.9446 47.9426 83.4394 48.1628 83.8702 48.4611C84.3058 48.7594 84.6491 49.1429 84.9001 49.6117C85.151 50.0757 85.2765 50.632 85.2765 51.2807V58.6387H82.4072V57.1259H82.3219C82.1468 57.4668 81.9124 57.7675 81.6188 58.0279C81.3253 58.2836 80.9725 58.4848 80.5606 58.6316C80.1486 58.7736 79.6728 58.8446 79.133 58.8446ZM79.9995 56.7566C80.4446 56.7566 80.8376 56.669 81.1785 56.4938C81.5194 56.3139 81.7869 56.0724 81.981 55.7694C82.1752 55.4663 82.2722 55.123 82.2722 54.7395V53.5819C82.1775 53.6434 82.0473 53.7002 81.8816 53.7523C81.7206 53.7997 81.5383 53.8446 81.3347 53.8873C81.1311 53.9251 80.9275 53.9606 80.7239 53.9938C80.5203 54.0222 80.3357 54.0482 80.17 54.0719C79.8148 54.124 79.5047 54.2069 79.2396 54.3205C78.9744 54.4341 78.7684 54.588 78.6217 54.7821C78.4749 54.9715 78.4015 55.2083 78.4015 55.4924C78.4015 55.9043 78.5506 56.2192 78.8489 56.437C79.152 56.65 79.5355 56.7566 79.9995 56.7566ZM87.0238 58.6387V47.7296H89.957V49.633H90.0707C90.2695 48.9559 90.6033 48.4445 91.0721 48.0989C91.5408 47.7485 92.0806 47.5733 92.6914 47.5733C92.8429 47.5733 93.0063 47.5828 93.1815 47.6017C93.3567 47.6207 93.5105 47.6467 93.6431 47.6799V50.3645C93.5011 50.3219 93.3046 50.284 93.0536 50.2509C92.8027 50.2177 92.573 50.2012 92.3647 50.2012C91.9196 50.2012 91.5219 50.2982 91.1715 50.4924C90.8259 50.6818 90.5513 50.9469 90.3477 51.2878C90.1488 51.6287 90.0494 52.0217 90.0494 52.4668V58.6387H87.0238ZM97.3489 55.4995L97.356 51.8702H97.7963L101.291 47.7296H104.764L100.069 53.2125H99.3517L97.3489 55.4995ZM94.6074 58.6387V44.0932H97.633V58.6387H94.6074ZM101.426 58.6387L98.2153 53.8873L100.232 51.7495L104.97 58.6387H101.426Z" fill="#0D0D12"/>
</svg>
