<svg width="20" height="21" viewBox="0 0 20 21" fill="none" xmlns="http://www.w3.org/2000/svg">
<path d="M8.33366 12.7777L12.6587 10.2777L8.33366 7.77767V12.7777ZM17.967 6.25267C18.0753 6.64434 18.1503 7.16934 18.2003 7.836C18.2587 8.50267 18.2837 9.07767 18.2837 9.57767L18.3337 10.2777C18.3337 12.1027 18.2003 13.4443 17.967 14.3027C17.7587 15.0527 17.2753 15.536 16.5253 15.7443C16.1337 15.8527 15.417 15.9277 14.317 15.9777C13.2337 16.036 12.242 16.061 11.3253 16.061L10.0003 16.111C6.50866 16.111 4.33366 15.9777 3.47533 15.7443C2.72533 15.536 2.24199 15.0527 2.03366 14.3027C1.92533 13.911 1.85033 13.386 1.80033 12.7193C1.74199 12.0527 1.71699 11.4777 1.71699 10.9777L1.66699 10.2777C1.66699 8.45267 1.80033 7.111 2.03366 6.25267C2.24199 5.50267 2.72533 5.01934 3.47533 4.811C3.86699 4.70267 4.58366 4.62767 5.68366 4.57767C6.76699 4.51934 7.75866 4.49434 8.67533 4.49434L10.0003 4.44434C13.492 4.44434 15.667 4.57767 16.5253 4.811C17.2753 5.01934 17.7587 5.50267 17.967 6.25267Z" fill="white"/>
</svg>
